# xmcd
#
# Track frame offsets: 
#        150
#        14000
#        28130
#        46362
#        67627
#        86613
#        101905
#        118659
#        137094
#        154895
#        169587
#        190315
#        216043
#
# Disc length: 3223 seconds
#
# Revision: 0
# Processed by: cddbd v1.5.2PL0 Copyright (c) Steve Scherf et al.
# Submitted via: ExactAudioCopyFreeDBPlugin 1.0
#
DISCID=b20c950d
DTITLE=Funky Nashville - A Good Day To Drive
DYEAR=2003
DGENRE=Blues
TTITLE0=Everything We Do
TTITLE1=Searching For Love
TTITLE2=Keep On Burning
TTITLE3=Star Shines Bright
TTITLE4=Big Sky
TTITLE5=Country Road
TTITLE6=The Roads Of Mexico
TTITLE7=Cool Desert
TTITLE8=Simple Song
TTITLE9=Slide Away
TTITLE10=We Got Away
TTITLE11=Witch Queen Of New Orleans
TTITLE12=Everything We Do (Video)
EXTD=
EXTT0=
EXTT1=
EXTT2=
EXTT3=
EXTT4=
EXTT5=
EXTT6=
EXTT7=
EXTT8=
EXTT9=
EXTT10=
EXTT11=
EXTT12=
PLAYORDER=
